<?xml version="1.0" standalone="no"?>
<!DOCTYPE svg PUBLIC "-//W3C//DTD SVG 20010904//EN"
 "http://www.w3.org/TR/2001/REC-SVG-20010904/DTD/svg10.dtd">
<svg version="1.0" xmlns="http://www.w3.org/2000/svg"
 width="1280.000000pt" height="1280.000000pt" viewBox="0 0 1280.000000 1280.000000"
 preserveAspectRatio="xMidYMid meet">
<metadata>
Created by potrace 1.16, written by Peter Selinger 2001-2019
</metadata>
<g transform="translate(0.000000,1280.000000) scale(0.100000,-0.100000)"
fill="#9C1F5C" stroke="none">
<path d="M6445 10757 c-4 -34 -17 -132 -29 -217 l-23 -155 -212 -36 c-117 -21
-214 -39 -215 -40 -2 -2 83 -44 190 -94 l193 -90 0 -35 c0 -19 -13 -120 -28
-224 l-28 -190 149 157 c83 86 154 157 159 157 5 0 48 -19 96 -41 244 -116
296 -139 298 -137 2 2 -18 39 -42 83 -62 110 -153 289 -153 299 0 4 65 76 145
159 79 83 143 153 140 155 -2 2 -97 -13 -210 -33 -114 -20 -208 -35 -210 -33
-8 8 -109 196 -149 276 -25 50 -50 93 -55 96 -5 3 -12 -22 -16 -57z"/>
<path d="M6780 9788 c0 -3 20 -68 44 -145 243 -771 338 -1194 392 -1738 21
-218 30 -796 15 -1006 -36 -498 -134 -895 -298 -1209 -73 -139 -103 -184 -212
-315 -118 -143 -240 -242 -402 -328 -36 -19 -77 -42 -90 -51 -14 -8 -79 -34
-145 -56 -135 -45 -111 -46 101 -4 156 30 319 85 536 178 107 46 316 160 349
191 14 12 45 35 70 50 168 104 463 374 608 555 105 131 204 262 223 296 9 16
43 70 74 119 75 116 219 406 283 565 121 304 216 684 257 1033 l7 57 -68 -68
c-53 -53 -81 -73 -123 -87 -74 -24 -150 -16 -241 25 -98 46 -103 56 -33 63 73
8 127 45 164 112 74 134 57 330 -47 537 -70 139 -135 218 -266 321 -117 93
-254 119 -347 67 -85 -48 -138 -181 -128 -320 4 -50 3 -70 -4 -60 -141 221
-446 739 -545 925 -43 81 -174 302 -174 293z"/>
<path d="M6621 9678 c-2 -168 -37 -387 -92 -568 -60 -199 -189 -482 -293 -645
l-51 -80 -6 120 c-8 160 -38 244 -132 372 -79 107 -209 191 -352 228 -87 22
-234 20 -325 -6 -92 -25 -195 -78 -255 -131 -90 -79 -180 -231 -204 -346 -14
-67 -14 -215 0 -284 26 -127 150 -314 256 -386 118 -80 245 -115 400 -110 110
3 112 3 91 -15 -13 -10 -82 -47 -155 -83 -186 -92 -363 -126 -547 -105 -96 11
-236 48 -236 62 0 5 -6 9 -13 9 -7 0 -49 22 -94 50 -171 105 -273 268 -312
500 l-18 105 -21 -71 c-46 -152 -55 -207 -55 -334 0 -109 3 -136 27 -207 79
-242 276 -416 898 -792 119 -72 229 -142 245 -154 15 -13 57 -43 93 -67 242
-162 487 -394 589 -557 18 -29 36 -53 40 -53 3 0 17 17 30 38 13 20 36 55 51
77 90 135 245 433 283 546 8 24 29 80 47 124 108 270 211 742 250 1145 18 175
23 601 11 787 -19 296 -85 729 -135 883 l-14 45 -1 -97z"/>
<path d="M7735 9323 c6 -5 40 -31 78 -57 37 -26 75 -56 85 -66 9 -10 37 -35
62 -55 98 -81 215 -193 252 -240 21 -27 70 -88 109 -135 163 -197 336 -523
417 -785 49 -162 60 -204 81 -325 33 -185 44 -340 38 -530 -7 -213 -27 -357
-77 -555 -58 -232 -123 -390 -274 -669 -75 -137 -250 -358 -407 -513 -154
-151 -224 -209 -364 -300 -55 -36 -118 -78 -140 -93 -153 -106 -506 -235 -775
-285 -47 -9 -107 -21 -135 -26 -67 -14 -457 -14 -520 0 -27 6 -84 17 -126 25
-252 48 -448 113 -656 221 -194 100 -406 254 -559 404 -57 57 -104 105 -104
107 0 3 26 -13 58 -34 31 -22 84 -54 117 -73 33 -18 62 -36 65 -39 10 -12 139
-59 218 -79 261 -67 535 -35 689 81 186 141 247 307 193 523 -28 111 -63 182
-151 305 -139 195 -381 405 -674 586 -60 37 -119 75 -130 84 -11 9 -101 66
-200 125 -177 106 -265 162 -275 175 -3 4 -41 32 -85 62 -253 177 -412 374
-466 578 -45 171 -34 354 35 581 40 131 29 124 -54 -35 -146 -280 -244 -591
-286 -906 -20 -150 -23 -489 -5 -630 68 -548 269 -1010 617 -1420 104 -123
116 -135 255 -261 276 -251 631 -451 980 -553 473 -137 940 -149 1414 -36 210
50 464 146 608 230 207 122 249 148 327 204 128 94 346 296 439 410 104 127
188 238 209 275 11 20 46 79 78 131 99 161 216 449 268 655 57 224 79 409 79
655 0 364 -58 666 -194 1007 -161 406 -496 839 -849 1097 -36 27 -67 51 -70
55 -6 9 -109 78 -165 111 -22 13 -35 19 -30 13z"/>
<path d="M6601 3628 c-5 -13 -23 -68 -40 -124 l-32 -101 3 -334 c3 -334 3
-334 28 -377 14 -26 44 -55 75 -75 l50 -32 352 -3 c251 -2 358 0 374 8 11 7
33 37 47 68 24 51 27 71 30 194 3 106 0 149 -13 195 -36 124 -107 213 -199
248 -45 17 -50 17 -99 2 -102 -33 -166 -130 -175 -263 -6 -93 3 -140 33 -170
24 -23 28 -24 200 -24 l176 0 -3 -37 -3 -38 -335 0 -335 0 -50 25 -50 25 -3
418 c-2 402 -7 459 -31 395z"/>
<path d="M8190 3647 c0 -1 -18 -55 -40 -121 l-40 -119 0 -306 c0 -173 5 -326
11 -351 14 -61 43 -102 98 -135 42 -26 54 -29 151 -29 l105 -1 2 86 2 87 -83
4 c-61 3 -95 11 -132 29 l-49 24 -3 418 c-1 266 -6 417 -12 417 -6 0 -10 -1
-10 -3z"/>
<path d="M7127 3532 c-26 -26 -47 -52 -47 -58 0 -5 23 -32 50 -59 l50 -49 50
49 c28 27 50 56 50 64 0 15 -84 101 -98 101 -4 0 -29 -22 -55 -48z"/>
<path d="M5035 3538 c-4 -13 -10 -63 -14 -113 l-6 -90 -32 -3 c-37 -4 -39 -8
-17 -40 14 -20 23 -22 123 -22 120 0 115 -3 126 71 4 30 2 50 -7 62 -19 25
-80 33 -117 14 l-31 -15 -1 61 c-1 34 -1 70 0 80 3 25 -15 21 -24 -5z"/>
<path d="M10282 3407 l-42 -123 0 -347 c0 -191 4 -347 9 -347 13 0 56 70 76
125 16 44 19 93 23 433 5 447 2 458 -66 259z"/>
<path d="M3855 3420 l-50 -50 53 -52 52 -53 50 50 c27 27 50 52 50 56 0 8 -92
99 -100 99 -3 0 -28 -23 -55 -50z"/>
<path d="M3968 3262 l-54 -51 -44 44 c-24 25 -49 45 -55 45 -6 0 -33 -23 -60
-50 l-50 -50 56 -55 55 -55 55 49 56 50 49 -50 48 -49 44 43 c68 66 68 67 7
127 l-53 53 -54 -51z"/>
<path d="M9291 3213 l-50 -58 -47 53 c-25 28 -49 52 -54 52 -5 0 -30 -25 -56
-56 l-48 -55 52 -52 52 -52 48 48 c26 26 51 47 55 47 4 0 29 -20 55 -44 l47
-44 53 49 53 50 -40 48 c-67 79 -62 79 -120 14z"/>
<path d="M5524 3205 l-47 -56 48 -49 c27 -28 52 -50 55 -50 12 0 100 87 100
99 0 14 -89 111 -101 111 -4 0 -29 -25 -55 -55z"/>
<path d="M7670 3111 c-14 -53 -32 -152 -28 -155 2 -1 38 -10 82 -19 111 -23
196 -80 211 -139 l7 -28 -176 0 -176 0 0 -95 0 -95 227 0 226 0 -6 118 c-9
148 -20 194 -62 258 -73 111 -185 194 -262 194 -29 0 -33 -4 -43 -39z"/>
<path d="M4944 3129 c-4 -8 -10 -55 -12 -105 l-4 -91 70 -5 c57 -4 80 -11 117
-36 48 -32 95 -86 95 -109 0 -10 -35 -13 -162 -13 l-163 0 2 -92 1 -93 192 -3
c128 -2 197 1 206 8 7 6 16 25 19 41 l7 30 35 -31 c52 -46 71 -50 223 -50
l138 0 46 77 c29 49 46 89 46 110 0 58 -87 222 -110 208 -5 -3 -14 -29 -20
-58 -11 -48 -10 -57 9 -95 11 -23 21 -46 21 -52 0 -6 -61 -10 -176 -10 l-175
0 -31 68 c-68 150 -81 173 -122 216 -24 24 -63 54 -87 66 -53 28 -152 39 -165
19z"/>
<path d="M9785 2976 c-73 -33 -126 -100 -140 -179 l-7 -37 -143 0 -143 0 -7
28 c-11 46 -64 147 -89 171 l-25 23 -11 -43 c-6 -24 -14 -52 -16 -62 -3 -10 6
-37 20 -62 14 -24 26 -46 26 -49 0 -3 -36 -6 -80 -6 l-81 0 3 -87 3 -88 81 -3
81 -3 13 30 c22 53 36 56 54 11 l16 -40 363 0 364 0 15 90 15 90 -169 0 -168
0 0 26 c0 51 35 84 107 97 47 9 140 -11 184 -39 42 -26 45 -22 27 38 -30 102
-174 148 -293 94z"/>
<path d="M3594 2923 c-16 -55 -16 -58 5 -100 11 -24 21 -48 21 -53 0 -6 -75
-10 -195 -10 l-195 0 -42 75 c-27 47 -49 74 -58 73 -8 -2 -25 -30 -38 -64
l-24 -61 46 -83 c55 -98 62 -121 46 -150 -29 -54 -225 -106 -365 -97 -142 9
-225 66 -247 168 -10 48 -8 67 15 162 l25 109 -28 -27 c-16 -15 -41 -55 -57
-88 -26 -57 -28 -71 -27 -173 2 -122 6 -135 67 -201 95 -103 269 -139 443 -93
152 41 217 95 263 216 l19 49 188 5 189 5 15 33 16 33 14 -33 15 -33 105 -3
c132 -4 147 0 155 38 7 33 25 41 25 11 0 -43 24 -51 150 -51 129 0 135 2 166
61 18 36 26 32 44 -20 l13 -41 168 0 167 0 46 77 c53 90 57 119 22 198 -27 61
-74 127 -85 120 -4 -2 -13 -28 -20 -58 -12 -49 -12 -57 8 -95 11 -23 21 -46
21 -52 0 -7 -55 -10 -172 -8 l-172 3 -4 34 c-5 45 -39 135 -61 162 l-18 22
-20 -34 c-43 -74 -47 -95 -24 -134 11 -20 21 -40 21 -46 0 -5 -46 -9 -105 -9
l-105 0 0 25 c0 67 -69 195 -106 195 -6 0 -19 -28 -27 -62 -15 -61 -15 -62 9
-103 13 -23 24 -45 24 -48 0 -4 -45 -7 -99 -7 l-99 0 -7 43 c-4 23 -14 58 -23
77 -15 36 -70 100 -84 100 -4 0 -15 -25 -24 -57z"/>
<path d="M6181 2888 c-41 -44 -54 -87 -55 -183 l-1 -80 98 -3 c53 -1 97 -6 97
-11 0 -12 -87 -92 -140 -128 -62 -42 -145 -83 -208 -103 -29 -9 -54 -21 -54
-26 -2 -16 94 -25 201 -19 93 6 109 10 145 35 79 55 143 136 180 229 16 42 16
46 -5 110 -45 138 -108 211 -184 211 -37 0 -49 -5 -74 -32z"/>
<path d="M8752 2826 c-33 -24 -63 -49 -66 -55 -4 -6 -38 -11 -77 -11 l-69 0 0
-67 c0 -38 -3 -78 -6 -90 -6 -21 -3 -23 40 -23 38 0 54 -7 98 -40 57 -44 149
-83 182 -78 12 2 37 27 60 61 37 53 43 57 78 57 l38 0 0 90 0 90 -45 0 c-42 0
-47 3 -87 54 -27 35 -51 55 -64 55 -12 1 -49 -19 -82 -43z"/>
<path d="M2792 2767 l-52 -53 53 -52 53 -52 54 55 54 55 -49 50 c-27 27 -52
50 -55 50 -3 0 -29 -24 -58 -53z"/>
<path d="M4499 2431 l-54 -49 57 -58 58 -58 49 55 49 54 56 -55 c34 -33 59
-50 64 -45 5 6 28 32 52 58 l43 48 -48 49 c-27 28 -53 50 -57 50 -5 0 -29 -20
-56 -45 -26 -25 -49 -45 -52 -45 -3 0 -26 20 -50 45 -24 25 -47 45 -50 45 -4
0 -31 -22 -61 -49z"/>
</g>
</svg>
