<?xml version="1.0" standalone="no"?>
<!DOCTYPE svg PUBLIC "-//W3C//DTD SVG 20010904//EN"
 "http://www.w3.org/TR/2001/REC-SVG-20010904/DTD/svg10.dtd">
<svg version="1.0" xmlns="http://www.w3.org/2000/svg"
 width="793.000000pt" height="699.000000pt" viewBox="0 0 793.000000 699.000000"
 preserveAspectRatio="xMidYMid meet">
<metadata>
Created by potrace 1.16, written by Peter Selinger 2001-2019
</metadata>
<g transform="translate(0.000000,699.000000) scale(0.100000,-0.100000)"
fill="#000000" stroke="none">
<path d="M3705 6838 c-19 -166 -52 -372 -61 -375 -5 -1 -101 -18 -213 -37
-112 -19 -204 -36 -206 -38 -2 -2 84 -43 191 -93 l194 -90 -1 -35 c0 -19 -13
-120 -28 -224 l-28 -189 151 157 c83 86 154 157 158 156 4 0 47 -19 95 -41
244 -116 296 -139 298 -137 2 2 -18 39 -42 83 -65 116 -153 288 -153 298 0 5
65 77 145 160 80 83 143 152 141 155 -3 2 -98 -13 -212 -33 -196 -35 -208 -36
-218 -19 -6 10 -50 92 -97 182 -48 90 -91 168 -97 174 -7 7 -12 -10 -17 -54z"/>
<path d="M4046 5850 c4 -14 23 -79 44 -145 245 -788 332 -1178 386 -1720 22
-221 30 -789 15 -1007 -59 -831 -314 -1432 -741 -1745 -134 -97 -347 -203
-473 -234 -78 -19 -47 -21 59 -4 131 21 294 60 347 84 23 10 53 22 67 26 128
38 452 189 542 254 24 17 68 47 98 68 314 210 625 532 857 887 287 439 486
962 572 1506 11 69 23 151 27 183 l6 57 -68 -68 c-56 -56 -80 -72 -128 -86
-77 -24 -146 -17 -236 25 -98 45 -103 55 -33 62 107 11 179 92 204 228 35 193
-84 497 -257 660 -137 128 -222 173 -329 174 -57 0 -78 -5 -115 -25 -87 -49
-140 -187 -126 -326 4 -35 4 -64 1 -64 -3 0 -13 16 -22 35 -10 19 -56 95 -103
169 -105 168 -327 547 -420 721 -65 120 -182 311 -174 285z"/>
<path d="M3877 5705 c-11 -255 -67 -497 -179 -770 -38 -93 -150 -309 -202
-390 l-51 -80 -6 115 c-6 128 -18 178 -59 260 -114 225 -299 346 -550 357
-138 7 -204 -7 -330 -69 -138 -67 -247 -193 -308 -356 -31 -83 -41 -249 -22
-345 27 -136 147 -321 257 -395 118 -80 245 -115 400 -110 110 3 112 3 91 -15
-13 -10 -82 -47 -155 -83 -189 -93 -362 -126 -547 -105 -96 11 -236 48 -236
62 0 5 -6 9 -13 9 -28 0 -178 103 -228 158 -92 99 -158 247 -181 409 -7 46
-15 77 -19 70 -4 -7 -22 -67 -40 -132 -28 -105 -32 -136 -32 -250 0 -115 3
-139 27 -212 36 -110 103 -208 223 -323 125 -121 300 -243 675 -469 119 -72
229 -142 245 -154 15 -13 57 -43 93 -67 242 -162 491 -397 586 -553 20 -31 38
-57 42 -57 4 0 16 15 28 33 140 217 172 272 250 435 41 84 74 155 74 158 0 2
22 63 50 134 124 320 216 736 262 1180 20 194 17 765 -5 970 -27 244 -82 560
-120 690 -13 44 -14 40 -20 -105z"/>
<path d="M4995 5403 c6 -5 40 -31 78 -57 37 -26 75 -55 85 -65 9 -10 51 -47
92 -82 109 -92 177 -158 219 -211 20 -25 70 -88 112 -140 206 -251 356 -557
462 -938 53 -188 82 -463 74 -700 -14 -439 -119 -808 -343 -1210 -127 -226
-412 -554 -629 -721 -370 -285 -695 -423 -1205 -511 -80 -14 -449 -14 -510 0
-25 5 -94 20 -155 31 -158 31 -281 66 -409 115 -114 45 -312 141 -356 175 -14
10 -61 42 -105 71 -130 86 -214 153 -322 259 -57 55 -103 103 -103 106 0 2 37
-20 83 -49 251 -164 491 -231 739 -205 171 17 273 60 381 160 107 98 146 178
154 310 4 81 1 106 -21 182 -34 113 -63 170 -146 287 -117 163 -340 367 -557
509 -239 156 -300 195 -553 349 -85 52 -159 100 -165 106 -5 7 -46 38 -90 68
-253 177 -412 374 -466 578 -45 171 -34 354 35 581 44 144 27 124 -83 -96
-129 -259 -218 -552 -257 -845 -20 -150 -23 -490 -5 -630 68 -539 257 -982
595 -1394 100 -123 145 -168 351 -354 65 -59 271 -199 380 -258 39 -21 75 -43
82 -50 18 -18 212 -100 336 -143 332 -114 720 -167 1044 -142 548 41 984 197
1416 507 116 83 346 298 436 407 87 107 211 271 211 280 0 5 13 27 29 50 117
172 254 490 315 732 157 625 86 1278 -201 1846 -179 354 -461 692 -763 913
-36 27 -67 51 -70 55 -6 9 -109 78 -165 111 -22 13 -35 19 -30 13z"/>
</g>
</svg>
